HIERARCHY
ROOT Hips
{
	OFFSET 62.890800 8.863803 43.568401
	CHANNELS 6 Xposition Yposition Zposition Zrotation Xrotation Yrotation
	JOINT Chest
	{
		OFFSET -0.160400 1.630001 7.806301
		CHANNELS 6 Xposition Yposition Zposition Zrotation Xrotation Yrotation
		JOINT Chest2
		{
			OFFSET 0.000000 0.000000 3.197998
			CHANNELS 6 Xposition Yposition Zposition Zrotation Xrotation Yrotation
			JOINT Neck
			{
				OFFSET 0.000000 0.000001 7.440701
				CHANNELS 6 Xposition Yposition Zposition Zrotation Xrotation Yrotation
				JOINT Head
				{
					OFFSET 0.000000 0.000000 2.173901
					CHANNELS 6 Xposition Yposition Zposition Zrotation Xrotation Yrotation
					End Site
					{
						OFFSET 0.000000 0.000001 10.420303
					}
				}
			}
			JOINT LeftCollar
			{
				OFFSET 2.426399 -1.880099 4.759399
				CHANNELS 6 Xposition Yposition Zposition Zrotation Xrotation Yrotation
				JOINT LeftShoulder
				{
					OFFSET 4.420197 0.000000 0.000000
					CHANNELS 6 Xposition Yposition Zposition Zrotation Xrotation Yrotation
					JOINT LeftElbow
					{
						OFFSET 0.000000 -0.000001 -10.347099
						CHANNELS 6 Xposition Yposition Zposition Zrotation Xrotation Yrotation
						JOINT LeftWrist
						{
							OFFSET 0.000000 -0.000001 -12.496300
							CHANNELS 6 Xposition Yposition Zposition Zrotation Xrotation Yrotation
							End Site
							{
								OFFSET 0.000000 0.000000 -2.173901
							}
						}
					}
				}
			}
			JOINT RightCollar
			{
				OFFSET -2.781502 -1.903799 5.072601
				CHANNELS 6 Xposition Yposition Zposition Zrotation Xrotation Yrotation
				JOINT RightShoulder
				{
					OFFSET -4.012100 0.000000 0.000000
					CHANNELS 6 Xposition Yposition Zposition Zrotation Xrotation Yrotation
					JOINT RightElbow
					{
						OFFSET 0.000000 -0.000001 -10.346600
						CHANNELS 6 Xposition Yposition Zposition Zrotation Xrotation Yrotation
						JOINT RightWrist
						{
							OFFSET 0.000000 -0.000001 -12.562599
							CHANNELS 6 Xposition Yposition Zposition Zrotation Xrotation Yrotation
							End Site
							{
								OFFSET 0.000000 0.000000 -2.173901
							}
						}
					}
				}
			}
		}
	}
	JOINT LeftHip
	{
		OFFSET 2.047997 -0.047200 -2.693199
		CHANNELS 6 Xposition Yposition Zposition Zrotation Xrotation Yrotation
		JOINT LeftKnee
		{
			OFFSET 0.000000 -0.000001 -18.824400
			CHANNELS 6 Xposition Yposition Zposition Zrotation Xrotation Yrotation
			JOINT LeftAnkle
			{
				OFFSET 0.000000 -0.000002 -19.078199
				CHANNELS 6 Xposition Yposition Zposition Zrotation Xrotation Yrotation
				End Site
				{
					OFFSET 0.000000 -9.342100 0.000001
				}
			}
		}
	}
	JOINT RightHip
	{
		OFFSET -2.129898 -0.022300 -2.538300
		CHANNELS 6 Xposition Yposition Zposition Zrotation Xrotation Yrotation
		JOINT RightKnee
		{
			OFFSET 0.000000 -0.000001 -18.644600
			CHANNELS 6 Xposition Yposition Zposition Zrotation Xrotation Yrotation
			JOINT RightAnkle
			{
				OFFSET 0.000000 -0.000002 -18.801399
				CHANNELS 6 Xposition Yposition Zposition Zrotation Xrotation Yrotation
				End Site
				{
					OFFSET 0.000000 -8.914600 0.000001
				}
			}
		}
	}
}
MOTION
Frames: 10
Frame Time: 0.041667
-30.027306 59.928509 30.383348 5367.514541 8.537309 358.951521 -0.160403 1.630001 7.806309 -12.709176 6.564230 -9.141844 0.000012 0.000001 3.198004 6.622903 -6.557169 0.322917 -0.000006 0.000004 7.440695 -24.061165 8.782544 7.630821 -0.000002 0.000004 2.173907 -0.319969 -4.406729 0.133449 2.426404 -1.880095 4.759388 -173.778290 177.721481 -199.068677 4.420194 -0.000001 -0.000003 0.899082 -10.427292 -114.183230 -0.000017 0.000001 -10.347094 1308.100563 -167.231322 180.951423 0.000003 -0.000008 -12.496309 82.887549 -1.051645 -15.392936 -2.781504 -1.903794 5.072598 -188.987468 -185.035398 166.116922 -4.012103 0.000002 0.000010 -18.649803 -9.194039 452.539047 -0.000009 0.000001 -10.346611 98.789151 -132.284918 -262.173997 0.000004 -0.000007 -12.562603 255.204500 573.061286 -936.990704 2.047996 -0.047204 -2.693200 742.163547 -27.173525 -0.147103 0.000002 0.000002 -18.824394 -247.932206 249.820999 284.478253 -0.000005 -0.000000 -19.078188 -617.774655 -15.614565 61.728210 -2.129898 -0.022303 -2.538306 -807.008598 -36.578620 -67.242024 -0.000005 0.000008 -18.644600 312.487384 -219.316391 73.994820 -0.000004 0.000000 -18.801399 125.657832 209.304208 -231.897545
-30.084602 60.040504 30.369648 5367.970033 8.424816 358.967040 -0.160395 1.630001 7.806293 -12.437840 6.723030 -9.095276 0.000003 0.000004 3.198007 6.559883 -6.757190 0.320412 -0.000015 0.000000 7.440702 -24.072459 8.661464 8.073164 -0.000003 -0.000001 2.173908 0.251968 -4.357266 -0.094527 2.426390 -1.880101 4.759398 -174.673578 176.722621 -198.763559 4.420191 -0.000000 0.000006 1.694728 -11.059065 -114.337899 -0.000002 0.000001 -10.347098 1308.573977 -167.073544 181.014274 -0.000003 0.000003 -12.496297 82.771798 -1.119045 -15.613362 -2.781512 -1.903801 5.072598 -188.940135 -185.253705 165.975687 -4.012104 -0.000002 0.000003 -18.813353 -9.351904 452.523528 0.000002 0.000003 -10.346602 98.664220 -131.694421 -261.901418 0.000000 -0.000005 -12.562593 254.460610 572.999978 -936.858034 2.048008 -0.047198 -2.693206 742.300752 -27.228074 -0.155218 -0.000004 0.000003 -18.824392 -248.068864 249.641611 284.846810 0.000002 0.000004 -19.078209 -617.931913 -15.390505 61.737028 -2.129896 -0.022298 -2.538310 -807.240770 -36.390859 -67.197259 -0.000000 0.000008 -18.644596 312.352364 -219.423761 74.116008 -0.000002 0.000004 -18.801399 125.657763 209.193955 -231.721490
-30.146797 60.158707 30.361752 5368.502460 8.319730 359.044467 -0.160392 1.630003 7.806307 -12.229208 6.886240 -9.103977 0.000006 0.000004 3.198000 6.550382 -6.956166 0.319980 -0.000005 0.000009 7.440707 -23.300680 8.582445 7.966278 0.000002 0.000001 2.173900 0.273325 -4.303396 0.160715 2.426402 -1.880095 4.759398 -174.328475 176.985843 -198.191381 4.420202 0.000001 -0.000004 0.836806 -10.903250 -114.794880 -0.000001 0.000006 -10.347094 1308.908820 -166.878255 181.072072 -0.000003 -0.000005 -12.496288 82.824561 -1.121423 -15.762953 -2.781504 -1.903800 5.072607 -188.901012 -185.447737 165.898082 -4.012094 -0.000006 0.000001 -18.947991 -9.398458 452.412442 0.000001 -0.000001 -10.346594 98.468187 -130.749382 -261.600343 -0.000003 -0.000004 -12.562595 253.380293 572.928507 -936.723398 2.048001 -0.047197 -2.693198 742.699525 -27.338558 -0.102024 -0.000004 0.000004 -18.824400 -248.435236 249.449109 285.290226 0.000004 0.000002 -19.078201 -618.080757 -15.251635 61.622069 -2.129894 -0.022298 -2.538302 -807.476438 -36.168246 -67.104150 0.000003 0.000000 -18.644592 312.137787 -219.600144 74.272679 0.000002 0.000004 -18.801399 125.714809 209.065643 -231.469701
-30.209015 60.283314 30.361248 5369.163403 8.236754 359.153449 -0.160407 1.629993 7.806304 -12.146303 7.084747 -9.139183 0.000004 0.000002 3.197999 6.600793 -7.145204 0.316054 -0.000000 0.000000 7.440700 -22.292752 8.444042 7.811908 0.000007 0.000009 2.173908 0.352636 -4.283465 0.480873 2.426411 -1.880106 4.759403 -174.015489 177.356435 -197.832072 4.420187 0.000006 -0.000002 0.104518 -10.812260 -114.920733 -0.000002 0.000009 -10.347097 1308.966085 -166.530339 181.143707 0.000005 -0.000003 -12.496295 83.099107 -1.044304 -15.849259 -2.781497 -1.903808 5.072599 -188.828229 -185.596648 165.937260 -4.012102 0.000009 0.000002 -19.076541 -9.357180 452.135983 -0.000006 -0.000000 -10.346598 98.293341 -129.548184 -261.150207 -0.000006 -0.000003 -12.562593 252.505701 573.042599 -936.357737 2.048004 -0.047204 -2.693197 745.473620 -27.591239 1.064580 0.000003 -0.000002 -18.824396 -250.689635 249.210817 286.039525 0.000002 0.000002 -19.078203 -618.155561 -15.247255 61.477754 -2.129902 -0.022299 -2.538299 -807.793578 -35.949410 -67.021470 0.000000 -0.000001 -18.644600 311.850154 -219.907229 74.453870 0.000001 -0.000001 -18.801399 125.892585 208.933602 -231.181249
-30.273712 60.415108 30.373947 5370.004883 8.162564 359.262322 -0.160410 1.629996 7.806298 -12.181882 7.318297 -9.186828 0.000009 0.000006 3.198012 6.694420 -7.317784 0.317291 -0.000013 -0.000004 7.440703 -20.971717 8.189284 7.564645 -0.000013 -0.000001 2.173908 0.473093 -4.241190 0.917487 2.426392 -1.880100 4.759398 -173.674239 177.867128 -197.585966 4.420188 -0.000003 -0.000000 -0.614259 -10.679797 -114.838689 -0.000001 -0.000002 -10.347094 1309.156784 -166.090079 181.276171 0.000001 -0.000002 -12.496298 83.296875 -0.968667 -15.861012 -2.781507 -1.903802 5.072604 -188.733440 -185.725179 166.139010 -4.012103 -0.000003 -0.000003 -19.178106 -9.435672 451.614321 0.000002 0.000000 -10.346603 98.437615 -128.112383 -260.384460 -0.000006 -0.000009 -12.562597 250.987923 572.941075 -936.138296 2.047991 -0.047203 -2.693203 743.459698 -27.523770 0.048470 -0.000011 0.000005 -18.824400 -249.747042 249.088420 285.772601 0.000002 -0.000002 -19.078207 -618.142884 -15.430183 61.295620 -2.129905 -0.022301 -2.538307 -808.209126 -35.765674 -66.872149 0.000008 0.000002 -18.644598 311.489957 -220.383813 74.628559 0.000001 -0.000013 -18.801401 126.250364 208.835657 -230.820069
-30.341713 60.556812 30.402847 5371.005041 8.083261 359.469823 -0.160401 1.630003 7.806310 -12.181467 7.607857 -9.330207 0.000004 -0.000005 3.198005 6.774783 -7.467150 0.319397 -0.000013 0.000008 7.440692 -19.369844 7.889703 7.222684 -0.000004 0.000008 2.173911 0.685432 -4.255553 1.491954 2.426393 -1.880093 4.759392 -173.294084 178.482979 -197.439855 4.420204 0.000000 0.000006 -1.352858 -10.390636 -114.537061 0.000005 0.000003 -10.347097 1309.723853 -165.581831 181.454029 -0.000000 -0.000000 -12.496297 83.344338 -0.931424 -15.843411 -2.781504 -1.903795 5.072605 -188.709739 -185.742691 166.356566 -4.012094 -0.000001 0.000002 -19.063307 -10.398753 451.083943 -0.000002 -0.000003 -10.346605 99.629586 -127.285834 -259.306465 0.000004 -0.000007 -12.562599 250.041095 572.697155 -935.834490 2.048007 -0.047202 -2.693192 743.886995 -27.628469 0.090272 0.000003 -0.000004 -18.824406 -250.826512 248.851905 285.820631 -0.000001 0.000003 -19.078192 -618.079719 -15.847847 61.017297 -2.129895 -0.022299 -2.538297 -808.654783 -35.553870 -66.643242 -0.000001 0.000001 -18.644596 310.982447 -221.100996 74.847043 -0.000000 -0.000002 -18.801403 126.814825 208.715268 -230.381024
-30.414413 60.712811 30.456146 5372.214148 8.012624 359.476818 -0.160404 1.629999 7.806305 -12.190080 7.818582 -9.291761 0.000010 0.000000 3.198002 6.845524 -7.496955 0.322038 -0.000011 -0.000002 7.440699 -17.502409 7.532523 6.807319 0.000008 -0.000002 2.173913 0.986114 -4.345211 2.170593 2.426405 -1.880103 4.759394 -173.354709 178.692379 -197.376266 4.420190 -0.000001 0.000013 -1.570961 -10.548471 -114.017809 -0.000000 0.000010 -10.347097 1310.637678 -164.915382 181.726677 -0.000003 0.000003 -12.496300 83.097065 -0.973337 -15.821129 -2.781504 -1.903803 5.072608 -188.475641 -186.108475 166.613531 -4.012100 0.000001 -0.000004 -18.961758 -12.014101 450.251917 0.000001 -0.000001 -10.346601 101.418023 -126.926280 -257.251125 -0.000013 -0.000008 -12.562593 250.244580 572.676828 -935.384134 2.047988 -0.047200 -2.693193 744.425268 -27.604623 0.389825 0.000001 -0.000004 -18.824396 -252.351611 248.563589 285.563488 -0.000007 0.000004 -19.078196 -617.915903 -16.485037 60.699420 -2.129902 -0.022300 -2.538294 -809.117159 -35.629723 -66.295489 -0.000000 0.000003 -18.644598 310.293527 -222.101619 75.094569 0.000002 -0.000004 -18.801395 127.614544 208.600329 -229.838324
-30.493004 60.888210 30.536247 5373.661056 7.911322 359.486161 -0.160398 1.629999 7.806300 -12.211281 8.099603 -9.275480 0.000002 0.000006 3.197995 6.885677 -7.509349 0.323708 -0.000012 -0.000001 7.440701 -15.024528 7.098688 6.074776 -0.000001 0.000006 2.173903 1.333417 -4.272887 2.471229 2.426392 -1.880104 4.759401 -173.595432 178.698745 -197.242080 4.420198 -0.000003 0.000005 -1.663300 -11.023188 -113.460985 0.000006 0.000009 -10.347096 1312.048085 -164.137000 182.133456 -0.000007 0.000001 -12.496305 82.343818 -1.131862 -15.747700 -2.781516 -1.903807 5.072605 -188.293357 -186.114144 166.607821 -4.012095 0.000003 0.000002 -18.547922 -13.926284 449.636271 0.000002 0.000001 -10.346602 103.592079 -128.014534 -254.530005 0.000013 -0.000006 -12.562599 252.342322 572.563393 -935.026560 2.048008 -0.047199 -2.693197 744.637168 -27.523910 0.548828 0.000004 -0.000007 -18.824402 -254.009490 248.134434 284.998386 -0.000000 0.000001 -19.078205 -617.722418 -17.279175 60.435536 -2.129890 -0.022303 -2.538303 -809.731931 -35.646067 -65.891019 -0.000005 -0.000007 -18.644604 309.622857 -223.428971 75.314351 0.000002 -0.000006 -18.801399 128.695681 208.498054 -229.236148
-30.580688 61.084408 30.652155 5375.285001 7.805067 359.675139 -0.160406 1.629997 7.806304 -12.066444 8.399448 -9.441733 0.000003 -0.000002 3.197997 6.850914 -7.499782 0.323282 -0.000017 0.000003 7.440699 -12.457292 6.627773 5.410366 -0.000001 0.000003 2.173914 1.807324 -4.257914 2.993204 2.426390 -1.880101 4.759405 -174.346985 179.133855 -197.106583 4.420191 -0.000002 -0.000002 -1.552730 -10.866931 -112.727990 -0.000004 0.000006 -10.347094 1314.177574 -163.162796 182.671237 -0.000005 0.000007 -12.496298 81.051867 -1.503684 -15.800830 -2.781510 -1.903800 5.072604 -188.027103 -186.110415 166.357549 -4.012095 0.000000 -0.000007 -17.794431 -16.313244 449.047372 0.000001 0.000011 -10.346609 105.435199 -131.043695 -251.443360 0.000000 -0.000010 -12.562594 258.039301 572.693002 -934.166612 2.048000 -0.047202 -2.693197 745.015615 -27.552857 0.607156 0.000002 -0.000004 -18.824406 -257.482614 244.310840 283.428262 -0.000007 0.000002 -19.078196 -620.809991 -18.598086 59.878151 -2.129896 -0.022304 -2.538302 -810.173161 -35.728163 -65.292797 -0.000003 0.000004 -18.644600 308.529152 -224.993466 75.715625 0.000001 -0.000004 -18.801397 129.843549 208.260254 -228.594287
-30.678719 61.302811 30.808250 5377.063255 7.655821 359.802918 -0.160400 1.630000 7.806299 -11.730446 8.709993 -9.544710 0.000000 0.000000 3.198003 6.730931 -7.497468 0.320749 -0.000003 0.000008 7.440696 -9.798478 6.160434 4.757990 0.000003 -0.000001 2.173904 2.327947 -4.138473 3.516919 2.426403 -1.880099 4.759396 -173.781446 179.823144 -196.544226 4.420197 -0.000006 -0.000002 -3.145468 -10.918297 -112.206566 -0.000002 0.000002 -10.347090 1316.530547 -161.848504 183.296036 -0.000002 0.000010 -12.496300 79.501886 -1.984978 -15.915389 -2.781503 -1.903801 5.072600 -187.683394 -186.061088 165.866062 -4.012098 0.000002 0.000003 -16.633088 -18.986956 448.436343 -0.000003 0.000011 -10.346584 105.951404 -136.535140 -248.609324 0.000002 0.000001 -12.562598 267.554547 573.012655 -932.970837 2.048000 -0.047203 -2.693201 744.856827 -27.423025 0.481785 0.000009 -0.000003 -18.824396 -258.877830 244.748463 282.680957 0.000002 0.000002 -19.078199 -619.295001 -19.257737 59.136994 -2.129892 -0.022300 -2.538303 -811.068462 -35.288777 -64.885786 0.000000 0.000002 -18.644604 308.015413 -226.381060 76.224556 -0.000001 -0.000003 -18.801399 130.809515 207.967430 -228.061082
